<svg width="18" height="21" viewBox="0 0 18 21" fill="none" xmlns="http://www.w3.org/2000/svg">
<path d="M17.7335 15.5238L13.9886 11.8124H15.4244C15.8467 11.8124 16.2203 11.6073 16.3985 11.2768C16.5766 10.947 16.518 10.5689 16.2447 10.2904L12.5823 6.56258H13.9365C14.3631 6.56258 14.7475 6.34316 14.9144 6.00438C15.0794 5.67093 15.0015 5.28294 14.7156 5.01676L9.54658 0.198406C9.26391 -0.0661354 8.73656 -0.0661354 8.45342 0.198406L3.28393 5.01676C2.99799 5.28294 2.92064 5.67093 3.08518 6.00438C3.25205 6.34316 3.63691 6.56258 4.06348 6.56258H5.41773L1.75483 10.2912C1.48248 10.5693 1.42389 10.947 1.60155 11.2772C1.77968 11.6073 2.15281 11.8124 2.57563 11.8124H4.01145L0.266516 15.5238C-0.0147403 15.8023 -0.0784917 16.1837 0.0996374 16.5188C0.275423 16.8489 0.66215 17.0622 1.0845 17.0622H7.49997V18.065L6.08009 20.0501C5.83071 20.4865 6.19353 21 6.75089 21H11.2491C11.8065 21 12.1693 20.4865 11.9199 20.0501L10.5 18.065V17.0622H16.9155C17.3378 17.0622 17.7246 16.8489 17.9004 16.5188C18.0785 16.1837 18.0147 15.8023 17.7335 15.5238Z" fill="white"/>
</svg>
